<svg width="447" height="183" viewBox="0 0 447 183" fill="none" xmlns="http://www.w3.org/2000/svg">
<path d="M0 118V-6.67572e-06H6V118H0ZM24 118V-6.67572e-06H30V118H24ZM48 118V-6.67572e-06H60V118H48ZM35.6 182.6C32.1333 182.6 29.0667 181.733 26.4 180C23.6 178.267 21.4 175.667 19.8 172.2C18.2 168.6 17.4 164.133 17.4 158.8C17.4 153.2 18.2667 148.6 20 145C21.7333 141.533 23.9333 139 26.6 137.4C29.2667 135.933 32.1333 135.2 35.2 135.2C38.5333 135.2 41.4 136 43.8 137.6C46.2 139.2 48 141.4 49.2 144.2L44.8 146.4L44.2 146.6L44 146.2V145.6C44 145.067 43.6667 144.333 43 143.4C41.9333 141.933 40.7333 140.867 39.4 140.2C38.0667 139.533 36.6667 139.2 35.2 139.2C31.2 139.2 28.0667 140.933 25.8 144.4C23.6667 147.733 22.6 152.467 22.6 158.6C22.6 162.333 23.1333 165.733 24.2 168.8C25.4 171.733 26.9333 174 28.8 175.6C30.8 177.2 33 178 35.4 178C37.2667 178 39 177.533 40.6 176.6C42.3333 175.533 43.7333 174.133 44.8 172.4L48.6 175C47 177.533 45.2 179.4 43.2 180.6C41.0667 181.933 38.5333 182.6 35.6 182.6ZM66.0156 118V-6.67572e-06H72.0156V118H66.0156ZM84.0156 118V-6.67572e-06H96.0156V118H84.0156ZM120.016 118V-6.67572e-06H126.016V118H120.016ZM85.8156 132.4H91.8156V132.8C91.4156 133.2 91.2156 133.533 91.2156 133.8C91.0823 134.2 91.0156 134.8 91.0156 135.6V153.8C92.349 151.8 94.0156 150.133 96.0156 148.8C98.0156 147.6 100.082 147 102.216 147C105.416 147 107.949 148.133 109.816 150.4C111.682 152.667 112.616 156.267 112.616 161.2V181.8H107.416V161.4C107.416 157.933 106.816 155.467 105.616 154C104.416 152.4 102.882 151.6 101.016 151.6C99.4156 151.6 97.8823 152.067 96.4156 153C94.8156 153.8 93.549 155.067 92.6156 156.8C91.549 158.4 91.0156 160.2 91.0156 162.2V181.8H85.8156V132.4ZM132.031 118V-6.67572e-06H138.031V118H132.031ZM150.031 118V-6.67572e-06H156.031V118H150.031ZM162.031 118V-6.67572e-06H174.031V118H162.031ZM164.631 147C169.431 147 173.098 148.267 175.631 150.8C178.165 153.333 179.431 157.667 179.431 163.8V181.8H173.631V176.6C171.631 180.6 167.765 182.6 162.031 182.6C158.298 182.6 155.365 181.733 153.231 180C151.098 178.267 150.031 176 150.031 173.2C150.031 170.8 150.831 168.733 152.431 167C153.898 165.267 155.965 163.867 158.631 162.8C161.165 161.867 164.031 161.4 167.231 161.4C170.031 161.4 172.565 161.533 174.831 161.8C174.565 158.067 173.565 155.4 171.831 153.8C170.098 152.2 167.565 151.4 164.231 151.4C162.498 151.4 160.898 151.733 159.431 152.4C157.831 153.067 156.365 154 155.031 155.2L152.431 151.8C155.631 148.6 159.698 147 164.631 147ZM162.631 178.6C166.365 178.6 169.298 177.467 171.431 175.2C173.565 173.067 174.698 170 174.831 166C172.565 165.6 170.165 165.4 167.631 165.4C163.898 165.4 160.898 166.067 158.631 167.4C156.498 168.6 155.431 170.467 155.431 173C155.431 176.733 157.831 178.6 162.631 178.6ZM198.047 118V-6.67572e-06H204.047V118H198.047ZM216.047 118V-6.67572e-06H240.047V118H216.047ZM246.047 118V-6.67572e-06H252.047V118H246.047ZM245.447 178.6C242.247 181.133 238.647 182.4 234.647 182.4C230.914 182.4 228.247 181.267 226.647 179C225.047 176.6 224.247 172.867 224.247 167.8C224.247 166.867 224.314 165.4 224.447 163.4L225.247 152.2H217.647V147.8H225.447L226.047 138.8L231.847 137.8H232.647V138.2C232.38 138.6 232.18 139 232.047 139.4C231.78 139.8 231.647 140.333 231.647 141L230.847 147.8H242.047V152.2H230.447L229.847 163.8C229.714 165.8 229.647 167.067 229.647 167.6C229.647 171.6 230.114 174.333 231.047 175.8C231.98 177.133 233.447 177.8 235.447 177.8C236.914 177.8 238.314 177.533 239.647 177C240.847 176.467 242.247 175.6 243.847 174.4L245.447 178.6ZM264.062 118V-6.67572e-06H270.063V118H264.062ZM282.063 118V-6.67572e-06H294.063V118H282.063ZM300.063 118V-6.67572e-06H318.063V118H300.063ZM283.663 156H310.463V161H283.663V156ZM330.078 118V-6.67572e-06H342.078V118H330.078ZM348.078 118V-6.67572e-06H366.078V118H348.078ZM384.078 118V-6.67572e-06H390.078V118H384.078ZM359.878 140H346.878V135.4H378.878V140H365.278V181.8H359.878V140ZM396.094 118V-6.67572e-06H402.094V118H396.094ZM408.094 118V-6.67572e-06H414.094V118H408.094ZM432.094 118V-6.67572e-06H444.094V118H432.094ZM436.494 168.2H421.494L416.894 181.8H411.694L428.694 134.6H429.294L446.494 181.8H441.094L436.494 168.2ZM435.094 164.2L429.094 146.6L422.894 164.2H435.094Z" fill="url(#paint0_linear_204_3)"/>
<defs>
<linearGradient id="paint0_linear_204_3" x1="232" y1="-10.5" x2="232" y2="203" gradientUnits="userSpaceOnUse">
<stop stop-color="#C0A582"/>
<stop offset="0.635399" stop-color="#8C734E"/>
<stop offset="1" stop-color="#5C4B32"/>
</linearGradient>
</defs>
</svg>
